<svg width="400" height="592" viewBox="0 0 400 592" fill="none" xmlns="http://www.w3.org/2000/svg">
<path d="M201.918 417.675C211.316 415.121 220.327 413.11 229.078 410.327C239.675 406.956 246.709 399.507 246.81 388.692C247.082 359.373 258.747 334.946 278.259 313.318C291.767 298.345 304.398 282.757 312.927 264.389C332.586 222.048 322.34 167.353 288.909 134.046C262.403 107.64 230.052 95.0334 192.645 97.2503C136.045 100.605 92.3555 138.56 80.2356 190.705C70.2889 233.5 83.8301 270.263 112.376 302.785C125.955 318.255 139.87 333.485 146.856 353.19C150.447 363.318 152.799 373.644 152.862 384.449C152.894 389.968 153.971 395.479 154.06 401.001C154.23 411.445 148.661 418.25 138.224 420.976C129.947 423.138 120.045 418.772 115.124 410.962C111.931 405.893 110.592 400.147 110.117 394.525C108.114 370.821 95.4254 352.474 79.8577 335.42C57.9285 311.396 40.9547 284.727 34.1525 252.866C23.5344 203.132 33.1457 157.399 64.5264 116.591C92.0154 80.8426 129.08 59.4167 174.341 52.8794C263.731 39.9685 346.627 94.7717 365.652 180.534C377.846 235.506 364.208 284.416 327.042 327.341C320.388 335.025 313.697 342.694 307.413 350.659C298.126 362.429 292.639 375.959 290.514 390.52C286.384 418.823 269.896 434.686 241.289 440.82C212.578 446.976 184.237 454.757 155.74 461.852C150.979 463.037 146.2 463.707 141.521 461.818C134.871 459.132 131.646 453.485 132.095 445.788C132.49 439.001 136.552 434.197 144.031 432.286C163.137 427.404 182.284 422.669 201.918 417.675Z" fill="#8457FF"/>
<path d="M228.872 213.491C251.211 235.641 246.457 267.761 218.864 282.368C214.741 284.55 213.471 287.111 213.491 291.457C213.641 323.774 213.582 356.093 213.572 388.411C213.568 400.772 202.875 409.07 190.298 406.548C186.428 405.772 186.547 402.791 186.513 400.041C186.418 392.123 186.46 384.204 186.459 376.285C186.456 347.819 186.4 319.353 186.521 290.888C186.538 286.827 185.489 284.28 181.422 282.33C158.072 271.133 150.061 243.856 163.555 222.36C176.241 202.15 204.943 196.813 225.354 210.876C226.429 211.617 227.462 212.416 228.872 213.491ZM204.519 229.942C195.626 228.644 189.85 230.711 186.455 236.93C183.343 242.63 183.314 248.564 187.405 253.82C191.363 258.906 196.745 261.707 203.515 260.148C210.198 258.61 214.998 252.858 215.459 246.426C216.048 238.207 213.394 233.932 204.519 229.942Z" fill="#8457FF"/>
<path d="M216.043 492.498C195.795 497.477 176.112 502.485 156.353 507.195C149.454 508.839 142.769 508.307 137.793 502.357C133.688 497.449 132.934 492.066 135.438 486.253C138.011 480.279 143.467 478.061 149.311 476.596C170.279 471.336 191.275 466.183 212.266 461.011C223.717 458.189 235.164 455.352 246.64 452.631C256.394 450.318 264.975 454.525 267.262 462.579C269.896 471.856 265.378 480.006 255.343 482.751C242.507 486.263 229.508 489.216 216.043 492.498Z" fill="#8457FF"/>
<path d="M182.009 537.003C176.954 534.178 172.513 531.368 169.389 527.032C165.298 521.353 166.407 517.868 173.138 516.128C185.462 512.943 197.849 509.987 210.209 506.936C216.176 505.462 222.133 503.949 228.112 502.525C236.777 500.462 240.75 504.584 238.274 513.007C232.587 532.352 211.167 544.687 191.238 540.007C188.257 539.307 185.384 538.167 182.009 537.003Z" fill="#8457FF"/>
</svg>
