<svg width="120" height="40" viewBox="0 0 120 40" fill="none" xmlns="http://www.w3.org/2000/svg">
  <!-- Thinka Text -->
  <text x="10" y="28" font-family="Inter, Arial, sans-serif" font-size="24" font-weight="700" fill="white">
    Thinka
  </text>
  
  <!-- AI Brain Icon -->
  <circle cx="95" cy="20" r="8" fill="white" opacity="0.9"/>
  <path d="M95 12c-4.4 0-8 3.6-8 8s3.6 8 8 8 8-3.6 8-8-3.6-8-8-8zm0 12c-2.2 0-4-1.8-4-4s1.8-4 4-4 4 1.8 4 4-1.8 4-4 4z" fill="#1f2937"/>
  <circle cx="93" cy="18" r="1" fill="white"/>
  <circle cx="97" cy="18" r="1" fill="white"/>
  <path d="M93 22c0 1.1.9 2 2 2s2-.9 2-2" stroke="white" stroke-width="1.5" fill="none"/>
</svg>
